# xmcd
#
# Track frame offsets: 
#        150
#        14793
#        28070
#        44741
#        62357
#        86989
#        104628
#        121922
#        143921
#        161766
#        179556
#        198622
#
# Disc length: 2958 seconds
#
# Revision: 0
# Processed by: cddbd v1.5.2PL0 Copyright (c) Steve Scherf et al.
# Submitted via: ExactAudioCopy v1.0b3
#
DISCID=b80b8c0c
DTITLE=Marvin Gaye - Icon 2
DYEAR=2010
DGENRE=Soul
TTITLE0=Heard it Through the Grapevine
TTITLE1=Too Busy Thinking about my Baby
TTITLE2=That's the way Love is
TTITLE3=What's going on
TTITLE4=Inner City Blues (Make me wanna Holler)
TTITLE5=Where are we Going?
TTITLE6=Trouble Man
TTITLE7=Let's get it on
TTITLE8=Distant Lover Live
TTITLE9=I want You
TTITLE10=Got to Give it up
TTITLE11=Ego Tripping Out
EXTD=
EXTT0=
EXTT1=
EXTT2=
EXTT3=
EXTT4=
EXTT5=
EXTT6=
EXTT7=
EXTT8=
EXTT9=
EXTT10=
EXTT11=
PLAYORDER=
